HIERARCHY
ROOT hip
{
  OFFSET 0.0 0.0 0.0
  CHANNELS 6 Xposition Yposition Zposition Zrotation Yrotation Xrotation
  JOINT torso
  {
    OFFSET 0.0 0.0 0.0
    CHANNELS 3 Zrotation Xrotation Yrotation
    JOINT neck
    {
      OFFSET -31.42098999999993 328.8025209999999 74.3554680000002
      CHANNELS 3 Zrotation Xrotation Yrotation
      JOINT head
      {
        OFFSET 3.3519900000001144 303.81732099999994 206.53942900000015
        CHANNELS 3 Zrotation Xrotation Yrotation
        End Site
        {
          OFFSET 0.0 0.0 0.0
        }
      }
    }
    JOINT left_collar
    {
      OFFSET -31.42098999999993 328.8025209999999 74.3554680000002
      CHANNELS 3 Zrotation Xrotation Yrotation
      JOINT left_upper_arm
      {
        OFFSET -124.490479 -8.162841999999841 8.226441000000023
        CHANNELS 3 Zrotation Xrotation Yrotation
        JOINT left_forearm
        {
          OFFSET -253.595764 -1.5758060000000569 105.0729980000001
          CHANNELS 3 Zrotation Xrotation Yrotation
          JOINT left_hand
          {
            OFFSET -269.48803699999996 0.1478270000000066 -55.346191999999974
            CHANNELS 3 Zrotation Xrotation Yrotation
            End Site
            {
              OFFSET 0.0 0.0 0.0
            }
          }
        }
      }
    }
    JOINT right_collar
    {
      OFFSET -31.42098999999993 328.8025209999999 74.3554680000002
      CHANNELS 3 Zrotation Xrotation Yrotation
      JOINT right_upper_arm
      {
        OFFSET 162.02484099999998 0.46441600000002836 2.2303470000001653
        CHANNELS 3 Zrotation Xrotation Yrotation
        JOINT right_forearm
        {
          OFFSET 240.01246700000004 -25.835875999999985 121.34179699999959
          CHANNELS 3 Zrotation Xrotation Yrotation
          JOINT right_hand
          {
            OFFSET 252.48539699999992 18.910399999999868 -67.53466800000001
            CHANNELS 3 Zrotation Xrotation Yrotation
            End Site
            {
              OFFSET 0.0 0.0 0.0
            }
          }
        }
      }
    }
  }
}
MOTION
Frames: 6
Frame Time: 0.01
-251.0621847214681 215.0109948180236 1404.62005265457 0.03313387771424129 2.425314325481462 -4.23887391620433 0.1376224935848671 -3.1369791695097957 -0.3327179440150128 -3.4174351276992945 -6.824401388065487 2.502107151317456 0.0 0.0 0.0 5.92365212000701 -0.8711280498614072 10.755116031481212 42.30473323587309 8.76906307732843 22.319632700934054 48.24574946101595 -5.01169350779097 -12.05975004377537 0.0 0.0 0.0 1.5664314511088206 -0.12543094928637802 6.268659311849546 -36.65959398979791 5.214550166078638 -29.952795138227774 -63.91599211653098 -8.785334277431081 17.26531476713355 0.0 0.0 0.0
-251.03688278854273 214.97109289661688 1404.564875638221 0.034752045671074004 2.339575551530706 -4.08819159799844 0.14569482828938485 -3.0808095133860838 -0.3293804317176087 -3.374461682803596 -6.705073680942189 2.4685633326715055 0.0 0.0 0.0 5.865454511481416 -0.848343052572735 10.574544240237783 42.34362936563828 8.760834440636543 22.361871003032526 48.25227785118708 -5.013213063422233 -12.058071908823285 0.0 0.0 0.0 1.5706668705183977 -0.12370854926426025 6.147767634732171 -36.683698309388305 5.209787445711017 -29.976513917760492 -63.830591597348594 -8.793835545331696 17.226916750464355 0.0 0.0 0.0
-251.01197677994983 214.92973802139872 1404.508505760013 0.03601110090824536 2.2541230901630436 -3.939717671527077 0.15349617313233438 -3.025316271967684 -0.3260310720459199 -3.331871244912139 -6.584407799664542 2.4352999070271792 0.0 0.0 0.0 5.807076666388679 -0.8260073989805974 10.39625686267092 42.383090387353946 8.752631345983714 22.404292827628296 48.25907890447191 -5.014885615159067 -12.0561256781023 0.0 0.0 0.0 1.5753123254477925 -0.12204060794332618 6.029026885312539 -36.706458477708715 5.204894813144778 -29.999768324518353 -63.747861673188034 -8.801961130374236 17.18981368876932 0.0 0.0 0.0
-250.9870147692237 214.88629364602892 1404.4499572152197 0.036660088905423556 2.169273449172581 -3.7949775257181364 0.1609969165239921 -2.971028585585395 -0.3227136843659128 -3.2902366940170773 -6.461584806455729 2.4027033846680603 0.0 0.0 0.0 5.748977756077663 -0.8043487863598614 10.22214871416296 42.423020348813864 8.744586372942651 22.446516932097335 48.266044306756136 -5.016719842228929 -12.05386416249791 0.0 0.0 0.0 1.5803770987282975 -0.1204492005187055 5.91378209368193 -36.7272844106457 5.199957688787311 -30.022050870860276 -63.669148642087436 -8.809564224404829 17.154650826236097 0.0 0.0 0.0
-250.96148668050972 214.8401026173553 1404.388182482531 0.0364426612818057 2.0852862260808838 -3.655381605975819 0.16818342673103762 -2.9184424808450924 -0.31947312109369075 -3.250102518143753 -6.335691493606995 2.37113702488752 0.0 0.0 0.0 5.691590006432182 -0.7835742439835933 10.053999147894068 42.46333817355479 8.736834738005417 22.488165661941803 48.273049836510395 -5.0187274840091245 -12.05122926735614 0.0 0.0 0.0 1.5858682087080527 -0.1189548211296457 5.80327739706989 -36.74562446869308 5.195065842221627 -30.042866992658958 -63.59571351695812 -8.816511766114042 17.122031136112334 0.0 0.0 0.0
-250.93483336910307 214.79050753252716 1404.3221021428503 0.03510287028787682 2.0023595247655104 -3.5221884291882706 0.17506048278220343 -2.8680090772790208 -0.3163546786424084 -3.2119702957631993 -6.205752201433502 2.340931355308859 0.0 0.0 0.0 5.635309944409784 -0.7638657032348954 9.89342819649042 42.503976605462256 8.729511841287238 22.52887032132756 48.279956318144755 -5.020922751902045 -12.048153539154987 0.0 0.0 0.0 1.591788725507895 -0.11757574449688303 5.698622099822363 -36.76098343212705 5.190311327461873 -30.06174890310322 -63.52869397922091 -8.822687431484505 17.092497908604916 0.0 0.0 0.0
